<?xml version="1.0" standalone="no"?><!DOCTYPE svg PUBLIC "-//W3C//DTD SVG 1.1//EN" "http://www.w3.org/Graphics/SVG/1.1/DTD/svg11.dtd"><svg t="1616055515966" class="icon" viewBox="0 0 1024 1024" version="1.1" xmlns="http://www.w3.org/2000/svg" p-id="3128" xmlns:xlink="http://www.w3.org/1999/xlink" width="128" height="128"><defs><style type="text/css"></style></defs><path d="M694.485051 362.713719a598.951919 598.951919 0 0 0 23.036612-157.191002 811.25011 811.25011 0 0 0-15.056609-176.463461 36.888693 36.888693 0 0 0-30.113219-28.758124 35.684164 35.684164 0 0 0-35.985296 19.423026c-1.053963 2.107925-39.147184 71.970593-109.160418 97.717395-20.778121 7.528305-42.158506 13.701514-62.78606 19.874724h-0.752831C399.074376 156.287605 331.319634 175.861197 276.814708 240.905749A361.358624 361.358624 0 0 0 198.821472 431.974121l40.351713 5.119248a316.188796 316.188796 0 0 1 67.905308-167.730628c46.374357-55.10719 102.384943-71.368328 167.429496-90.339656 21.079253-6.323776 43.212469-12.798118 65.345684-20.928687a266.351419 266.351419 0 0 0 124.819292-105.396265 806.733127 806.733127 0 0 1 11.593589 152.674018 559.051904 559.051904 0 0 1-20.928687 145.145714 314.231437 314.231437 0 0 1-73.927952 130.992501 254.908396 254.908396 0 0 1-177.366858 78.595501 352.174092 352.174092 0 0 1-127.228349-20.928687 485.876783 485.876783 0 0 0 48.933981-14.002647c8.130569-2.860756 16.110572-5.872078 24.090575-9.033965l5.570945 1.957359a198.596677 198.596677 0 0 0 87.177768 0 491.447728 491.447728 0 0 0 67.604176-16.863403 21.98265 21.98265 0 0 0 13.550948-27.101896 19.874724 19.874724 0 0 0-25.295103-14.002647 466.754889 466.754889 0 0 1-71.518895 16.712836A472.175268 472.175268 0 0 0 489.414032 429.565064c19.874724 2.107925 46.524923-5.119247 81.456256-21.98265a614.159094 614.159094 0 0 0 63.087194-35.533598 22.886046 22.886046 0 0 0 6.624908-30.113218 19.573592 19.573592 0 0 0-28.005294-6.775474 526.981326 526.981326 0 0 1-57.516247 32.522276c-3.764152 1.806793-7.076606 3.613586-10.539627 4.968681 8.431701-10.238494 15.960006-19.874724 22.73548-30.113219a487.683576 487.683576 0 0 0 65.797383-122.259668 21.681517 21.681517 0 0 0-12.496986-27.403029 20.175856 20.175856 0 0 0-25.746802 13.400383 479.251875 479.251875 0 0 1-99.223055 158.094398 1114.18909 1114.18909 0 0 1 26.650198-123.464197 21.98265 21.98265 0 0 0-14.002646-26.650198 20.175856 20.175856 0 0 0-24.993972 15.056609c0 1.505661-10.690193 39.749449-19.121894 80.251728-10.690193 51.041906-12.647552 77.993236-8.883399 93.501544a444.621673 444.621673 0 0 1-92.146449 60.226437 1174.415527 1174.415527 0 0 1 33.425673-150.566093 22.283782 22.283782 0 0 0-13.852081-26.650199 20.175856 20.175856 0 0 0-24.993972 15.056609c0 1.806793-12.195854 43.664167-22.133215 88.081165a369.940891 369.940891 0 0 0-13.400383 92.598147c-3.011322 0.903397-6.022644 2.107925-8.883399 3.161888a509.214527 509.214527 0 0 1-76.638141 19.121894l-40.50228 4.968681a692.604029 692.604029 0 0 1-106.901926 3.46302A20.778121 20.778121 0 0 0 67.828971 532.702838a21.079253 21.079253 0 0 0 15.056609 21.982649 19.121894 19.121894 0 0 0 4.215851 0.903397 735.816498 735.816498 0 0 0 120.452875-4.366417 15.056609 15.056609 0 0 0 3.46302 4.065285 33.726805 33.726805 0 0 0 6.474342 4.667549A375.210704 375.210704 0 0 0 284.343013 587.207764a383.491839 383.491839 0 0 0 120.452875 16.261138A293.453316 293.453316 0 0 0 609.866907 511.924717a356.389943 356.389943 0 0 0 84.618144-149.210998z m90.339656 395.838259A662.49081 662.49081 0 0 0 646.303901 572.151154a207.480076 207.480076 0 0 1-46.374357 116.38759c-83.564182 101.632113-66.700779 204.017056-66.700779 204.017057A143.188355 143.188355 0 0 0 672.9541 1023.849434a144.242317 144.242317 0 0 0 140.628731-147.554771 154.631378 154.631378 0 0 0-5.872078-42.00794 248.434054 248.434054 0 0 0-23.036612-75.734745z m-181.883841 11.292457c-1.806793 1.204529-40.803411 28.155859-35.383032 116.38759a7.829437 7.829437 0 0 1-7.076606 8.431701 7.829437 7.829437 0 0 1-7.528305-7.528305c-6.022644-98.470225 40.652845-129.637406 42.610205-130.841935a7.227172 7.227172 0 0 1 10.38906 2.559624 8.281135 8.281135 0 0 1-3.161888 10.991325z m350.818998-115.333628a104.191737 104.191737 0 0 0-9.485664-31.016615 269.965005 269.965005 0 0 0-56.612851-76.337009 84.467578 84.467578 0 0 1-18.971328 47.578885 112.322306 112.322306 0 0 0-27.403029 82.811351 57.365682 57.365682 0 0 0 114.881929-5.872077 60.226437 60.226437 0 0 0-2.559624-17.164535z m-83.865314-26.349066s-16.712836 11.443023-15.05661 47.578885a3.161888 3.161888 0 0 1-2.860755 3.463021 3.011322 3.011322 0 0 1-3.011322-3.011322c-2.559624-40.351713 16.56227-53.149831 17.3151-53.60153a3.011322 3.011322 0 0 1 4.366417 1.053963 3.312454 3.312454 0 0 1-0.903396 4.516983z" p-id="3129" fill="#52c41a"></path></svg>